Coordinates
version=1
nRows=14
nColumns=36
inDegrees=yes

Units are S.I. units (second, meters, Newtons, ...)
If the header above contains a line with 'inDegrees', this indicates whether rotational values are in degrees (yes) or radians (no).

endheader
time	pelvis_tilt	pelvis_list	pelvis_rotation	pelvis_tx	pelvis_ty	pelvis_tz	hip_flexion_r	hip_adduction_r	hip_rotation_r	knee_angle_r	knee_angle_r_beta	ankle_angle_r	subtalar_angle_r	mtp_angle_r	hip_flexion_l	hip_adduction_l	hip_rotation_l	knee_angle_l	knee_angle_l_beta	ankle_angle_l	subtalar_angle_l	mtp_angle_l	lumbar_extension	lumbar_bending	lumbar_rotation	arm_flex_r	arm_add_r	arm_rot_r	elbow_flex_r	pro_sup_r	arm_flex_l	arm_add_l	arm_rot_l	elbow_flex_l	pro_sup_l
      4.33333330	     -5.74819949	      2.02242522	     -1.49699898	      0.00721075	      1.29798204	      0.05181573	      5.92350342	     -0.35491016	      4.43683422	      1.28998943	      0.02251456	      7.45103828	     -4.89438867	     -7.49999987	      5.59270897	      2.13261750	     -3.00775419	      0.43895654	      0.00766124	      4.82784111	     -1.46126667	     -7.49999987	     -1.93947179	     -1.53858310	     -1.25612878	     -2.14349965	     -7.16664262	      7.42809331	     33.45582936	     86.35010099	     -0.99914658	     -7.52332705	      8.92873188	     30.32177313	     94.10122571
      4.35000000	     -5.76603704	      2.04473773	     -1.48401833	      0.00703557	      1.29896825	      0.05192740	      5.91948947	     -0.40125520	      4.16215470	      1.27406052	      0.02223655	      7.51494255	     -4.68785213	     -7.49999987	      5.63342949	      2.15765042	     -3.10703088	      0.42932436	      0.00749312	      4.93941839	     -1.13923560	     -7.49999987	     -2.04848579	     -1.55104127	     -1.29583681	     -2.10319433	     -7.20263765	      7.52568471	     33.60681090	     84.11641963	     -1.09475330	     -7.49949994	      8.97116594	     30.48659906	     91.21386771
      4.36666670	     -6.01836418	      2.07749082	     -1.48453878	      0.00612136	      1.29647111	      0.05233372	      6.23251319	     -0.42136925	      4.38080242	      1.28518369	      0.02243069	      7.41788212	     -5.15793498	     -7.49999987	      5.90876811	      2.19393539	     -2.89097892	      0.43003393	      0.00750551	      4.81700977	     -1.69533853	     -7.49999987	     -1.75772149	     -1.59299215	     -1.25475841	     -2.01918246	     -7.39114083	      8.41482082	     33.43979612	     83.81697459	     -1.01997470	     -7.67239782	      9.99958907	     30.18885407	     90.79231117
      4.38333330	     -6.12308002	      2.07744848	     -1.40423632	      0.00614312	      1.29637536	      0.05216048	      6.34272337	     -0.43061251	      4.34334660	      1.27976877	      0.02233618	      7.53948995	     -5.09581661	     -7.49999987	      6.03471582	      2.20060344	     -2.71057000	      0.42632720	      0.00744081	      4.81851356	     -1.82264273	     -7.49999987	     -1.73608650	     -1.57973894	     -1.28163290	     -2.04132715	     -7.40201496	      8.18426580	     33.57924673	     84.44079137	     -1.02523534	     -7.67625693	      9.95242387	     30.18768952	     91.68136148
      4.40000000	     -6.15724848	      2.08422124	     -1.34810935	      0.00747605	      1.29754804	      0.05279265	      6.35888913	     -0.44544259	      4.35893137	      1.27451456	      0.02224448	      7.54706014	     -5.08512783	     -7.49999987	      6.07007232	      2.19663468	     -2.73814204	      0.43216788	      0.00754275	      4.85123193	     -1.83670205	     -7.49999987	     -1.79297198	     -1.59306173	     -1.27740910	     -2.04606568	     -7.42333732	      8.17181818	     33.58154376	     84.44489138	     -1.06488895	     -7.68537767	      9.94588401	     30.17469309	     91.68700195
      4.41666670	     -6.21780856	      2.09956659	     -1.33053420	      0.00737179	      1.29983412	      0.05234469	      6.39161695	     -0.47047027	      4.26849166	      1.28880329	      0.02249386	      7.62542432	     -4.82840641	     -7.49999987	      6.12263101	      2.19619239	     -2.81552838	      0.41813993	      0.00729792	      4.91260867	     -1.66682712	     -7.49999987	     -1.85088365	     -1.58888425	     -1.35721139	     -2.09406374	     -7.42379419	      8.01537049	     33.82629007	     83.73164201	     -1.18827802	     -7.67497999	      9.80582413	     30.31242539	     90.75443983
      4.43333330	     -6.31051079	      2.07104327	     -1.31892920	      0.00620656	      1.29715949	      0.05352474	      6.45956913	     -0.41743354	      4.36142673	      1.31911678	      0.02302293	      7.69367753	     -4.87974246	     -7.49999987	      6.22262273	      2.14723811	     -2.81837119	      0.42361163	      0.00739342	      5.00765816	     -1.74205021	     -7.49999987	     -1.86687190	     -1.55680194	     -1.36263863	     -2.10167598	     -7.44385748	      7.98541453	     33.91238373	     82.87811577	     -1.24538389	     -7.66133405	      9.78387730	     30.35491296	     89.62022918
      4.45000000	     -6.51943754	      2.06982092	     -1.27716813	      0.00549035	      1.30134835	      0.05389244	      6.71725363	     -0.37687083	      4.48320379	      1.33317694	      0.02326833	      7.57744427	     -4.95446218	     -7.49999987	      6.48287665	      2.12207402	     -2.80547132	      0.42220923	      0.00736894	      4.95289073	     -1.66089808	     -7.49999987	     -1.84383059	     -1.54982047	     -1.28381852	     -2.20648303	     -7.38009184	      7.13306738	     34.14359218	     86.47891095	     -1.30538814	     -7.61723504	      8.89915203	     30.52723022	     94.14130443
      4.46666670	     -6.61249328	      2.02493180	     -1.25277405	      0.00590522	      1.29473046	      0.05442416	      6.81370770	     -0.28725470	      4.47896360	      1.33462094	      0.02329353	      7.64623894	     -4.89152170	     -7.49999987	      6.63264729	      2.07074494	     -2.73539759	      0.42726365	      0.00745716	      5.06640331	     -1.63061618	     -7.49999987	     -1.86897913	     -1.52001856	     -1.34915741	     -2.14316412	     -7.48801943	      7.85761769	     34.10716854	     83.97516075	     -1.32716266	     -7.71636227	      9.46946240	     30.58941164	     91.37259645
      4.48333330	     -6.57514825	      2.03278050	     -1.20756419	      0.00763742	      1.29952914	      0.05344640	      6.80091876	     -0.29031967	      4.34440634	      1.34217654	      0.02342540	      7.69489921	     -4.66865707	     -7.49999987	      6.57029671	      2.06522856	     -2.87622765	      0.42605842	      0.00743612	      5.06055339	     -1.47463116	     -7.49999987	     -2.09617875	     -1.50899293	     -1.32018465	     -2.25142159	     -7.51925651	      7.81284249	     34.49209261	     82.25405373	     -1.50819111	     -7.72114964	      9.45103764	     31.11032316	     89.04137927
      4.50000000	     -6.78615284	      2.00910305	     -1.20723332	      0.00530685	      1.29628288	      0.05310367	      7.06120393	     -0.22092961	      4.59441858	      1.36747236	      0.02386690	      7.66212082	     -4.92537104	     -7.49999987	      6.82192372	      2.03041048	     -2.74945426	      0.43976541	      0.00767535	      5.11097539	     -1.63666247	     -7.49999987	     -2.02784570	     -1.47933958	     -1.29021731	     -2.36085948	     -7.53096393	      7.05604241	     34.56466008	     86.39697555	     -1.65058356	     -7.69627747	      8.56825125	     31.21986961	     94.46608582
      4.51666670	     -6.91397859	      2.01218210	     -1.14311325	      0.00462741	      1.29393601	      0.05408043	      7.25114849	     -0.17077533	      4.60335872	      1.45316873	      0.02536258	      7.81334424	     -4.89994182	     -7.49999987	      6.99705334	      2.01383856	     -2.59431226	      0.44751180	      0.00781055	      5.12142073	     -1.73760551	     -7.49999987	     -2.08592264	     -1.49332434	     -1.37701565	     -2.37360843	     -7.59635185	      7.12405687	     34.61981544	     86.07121168	     -1.81322877	     -7.78351874	      8.57183095	     31.45286980	     94.02803878
      4.53333330	     -6.98198816	      2.00577202	     -1.13396582	      0.00430834	      1.29375561	      0.05410777	      7.40514235	     -0.13487179	      4.44112251	      1.51107643	      0.02637326	      8.04733206	     -4.59239509	     -7.49999987	      7.11287519	      1.99018087	     -2.78734298	      0.46573183	      0.00812855	      5.25922181	     -1.50806691	     -7.49999987	     -2.27828171	     -1.51049572	     -1.37827112	     -2.48160764	     -7.71906740	      7.11855390	     34.82180508	     84.65419541	     -2.01766943	     -7.89685982	      8.55755100	     31.79080634	     92.26413767
      4.55000000	     -7.07947679	      2.02724737	     -1.06896519	      0.00435374	      1.29078185	      0.05399800	      7.55474626	     -0.12659434	      4.54303931	      1.58584309	      0.02767818	      8.17637961	     -4.71062078	     -7.49999987	      7.27110716	      1.99330884	     -2.55326537	      0.48828224	      0.00852213	      5.28011976	     -1.83189870	     -7.49999987	     -2.36203900	     -1.54175376	     -1.43723698	     -2.61756909	     -7.77788462	      7.22289536	     35.03431471	     82.78700935	     -2.26386731	     -7.99653889	      8.72696178	     32.12128550	     89.78401031
